<?xml version="1.0" encoding="utf-8"?>
<!-- Generator: Adobe Illustrator 23.0.6, SVG Export Plug-In . SVG Version: 6.00 Build 0)  -->
<svg version="1.1" id="Livello_1" xmlns="http://www.w3.org/2000/svg" xmlns:xlink="http://www.w3.org/1999/xlink" x="0px" y="0px"
	 viewBox="0 0 560.13 157.79" style="enable-background:new 0 0 560.13 157.79;" xml:space="preserve">
<style type="text/css">
	.st0{clip-path:url(#SVGID_2_);fill:#F2F2F3;}
	.st1{clip-path:url(#SVGID_4_);fill:#F2F2F3;}
	.st2{clip-path:url(#SVGID_6_);fill:#F2F2F3;}
	.st3{clip-path:url(#SVGID_8_);fill:#F2F2F3;}
	.st4{clip-path:url(#SVGID_10_);fill:#F2F2F3;}
	.st5{clip-path:url(#SVGID_12_);fill:#F2F2F3;}
	.st6{clip-path:url(#SVGID_14_);fill:#F2F2F3;}
	.st7{clip-path:url(#SVGID_16_);fill:#F2F2F3;}
	.st8{clip-path:url(#SVGID_18_);fill:#F2F2F3;}
	.st9{clip-path:url(#SVGID_20_);fill:#F2F2F3;}
	.st10{clip-path:url(#SVGID_22_);fill:#F2F2F3;}
	.st11{clip-path:url(#SVGID_24_);fill:#F2F2F3;}
	.st12{clip-path:url(#SVGID_26_);fill:#F2F2F3;}
	.st13{clip-path:url(#SVGID_28_);fill:#F2F2F3;}
	.st14{clip-path:url(#SVGID_30_);fill:url(#SVGID_31_);}
	.st15{clip-path:url(#SVGID_33_);fill:url(#SVGID_34_);}
	.st16{clip-path:url(#SVGID_36_);fill:url(#SVGID_37_);}
	.st17{clip-path:url(#SVGID_39_);fill:url(#SVGID_40_);}
	.st18{clip-path:url(#SVGID_42_);fill:url(#SVGID_43_);}
</style>
<g>
	<defs>
		<rect id="SVGID_1_" x="-113.53" y="-202.78" width="841.89" height="595.28"/>
	</defs>
	<clipPath id="SVGID_2_">
		<use xlink:href="#SVGID_1_"  style="overflow:visible;"/>
	</clipPath>
	<path class="st0" d="M343.95,100.69c0.22-0.34,0.32-0.7,0.32-1.08c-0.1-0.82-0.3-1.27-0.61-1.37c-0.31-0.1-0.73-0.14-1.26-0.14
		c-1.15,0-2.04-0.16-2.67-0.47c-0.62-0.31-1.08-0.73-1.37-1.26c-0.29-0.53-0.47-1.13-0.54-1.8c-0.07-0.67-0.11-1.35-0.11-2.02V63.92
		c0-0.67,0.04-1.35,0.11-2.02c0.07-0.67,0.25-1.27,0.54-1.8c0.29-0.53,0.74-0.95,1.37-1.26c0.62-0.31,1.51-0.47,2.67-0.47
		c0.53,0,0.95-0.05,1.26-0.14c0.31-0.1,0.52-0.55,0.61-1.37c0-0.38-0.11-0.74-0.32-1.08c-0.22-0.34-0.54-0.5-0.97-0.5
		c-3.12,0.14-6.13,0.22-9.01,0.22c-1.44,0-2.85-0.01-4.22-0.04c-1.37-0.02-2.82-0.08-4.36-0.18c-0.48,0-0.82,0.17-1.01,0.5
		c-0.19,0.34-0.29,0.7-0.29,1.08c0.05,0.82,0.24,1.28,0.58,1.37c0.33,0.1,0.74,0.14,1.22,0.14c1.15,0,2.04,0.15,2.67,0.47
		c0.62,0.31,1.08,0.73,1.37,1.26c0.29,0.53,0.47,1.13,0.54,1.8c0.07,0.67,0.13,1.35,0.18,2.02v28.62c-0.05,0.67-0.11,1.35-0.18,2.02
		c-0.07,0.67-0.25,1.27-0.54,1.8c-0.29,0.53-0.75,0.95-1.37,1.26c-0.62,0.31-1.51,0.47-2.67,0.47c-0.48,0-0.89,0.05-1.22,0.14
		c-0.34,0.1-0.53,0.55-0.58,1.37c0,0.39,0.1,0.75,0.29,1.08c0.19,0.34,0.53,0.5,1.01,0.5c1.54-0.1,3-0.15,4.39-0.18
		c1.4-0.02,2.81-0.04,4.26-0.04c2.83,0,5.81,0.07,8.94,0.22C343.41,101.19,343.74,101.02,343.95,100.69"/>
	<path class="st0" d="M390.27,57.22c0-0.67-0.18-1.13-0.54-1.37c-0.36-0.24-0.81-0.36-1.33-0.36h-35.25c-0.53,0-0.99,0.12-1.37,0.36
		c-0.39,0.24-0.58,0.7-0.58,1.37l-0.22,10.17c0,0.48,0.19,0.84,0.58,1.08c0.38,0.24,0.77,0.36,1.15,0.36c0.53,0,1.06-0.11,1.59-0.32
		c0.53-0.22,0.84-0.54,0.94-0.97c0.24-1.63,0.51-3.03,0.8-4.18c0.29-1.15,0.68-2.11,1.19-2.88c0.51-0.77,1.15-1.33,1.95-1.7
		c0.79-0.36,1.82-0.56,3.07-0.61h4.97v34.39c0,0.67-0.04,1.35-0.11,2.02c-0.07,0.67-0.25,1.27-0.54,1.8
		c-0.29,0.53-0.75,0.95-1.37,1.26c-0.62,0.31-1.51,0.47-2.67,0.47c-0.53,0-0.95,0.05-1.26,0.14c-0.31,0.1-0.49,0.55-0.54,1.37
		c0,0.39,0.1,0.74,0.29,1.08c0.19,0.33,0.53,0.51,1.01,0.51c3.07-0.14,6.08-0.22,9.01-0.22c1.39,0,2.78,0.01,4.15,0.04
		c1.37,0.02,2.82,0.08,4.36,0.18c0.48,0,0.82-0.17,1.01-0.51c0.19-0.34,0.29-0.7,0.29-1.08c-0.05-0.82-0.24-1.27-0.58-1.37
		c-0.34-0.1-0.75-0.14-1.23-0.14c-1.15,0-2.04-0.16-2.67-0.47c-0.62-0.31-1.08-0.73-1.37-1.26c-0.29-0.53-0.47-1.13-0.54-1.8
		c-0.07-0.67-0.11-1.35-0.11-2.02V58.15h4.9c1.25,0.05,2.27,0.25,3.06,0.61c0.79,0.36,1.44,0.93,1.95,1.7
		c0.5,0.77,0.91,1.73,1.23,2.88c0.31,1.15,0.59,2.55,0.83,4.18c0.1,0.43,0.4,0.76,0.9,0.97c0.5,0.22,1.02,0.32,1.55,0.32
		c0.38,0,0.78-0.12,1.19-0.36c0.41-0.24,0.61-0.6,0.61-1.08L390.27,57.22z"/>
	<path class="st0" d="M438.61,100.69c0.22-0.34,0.32-0.7,0.32-1.08c-0.05-0.82-0.23-1.27-0.54-1.37c-0.31-0.1-0.73-0.14-1.26-0.14
		c-0.77,0-1.42-0.18-1.95-0.54c-0.53-0.36-0.99-0.8-1.37-1.33c-0.39-0.53-0.72-1.12-1.01-1.77c-0.29-0.65-0.55-1.29-0.79-1.91
		L419.9,62.7c-0.67-1.58-1.37-2.88-2.09-3.89c-0.72-1.01-1.53-1.78-2.41-2.31c-0.89-0.53-1.9-0.9-3.03-1.12
		c-1.13-0.22-2.44-0.33-3.93-0.33c-0.82,0-1.5,0.04-2.05,0.11c-0.55,0.07-0.83,0.52-0.83,1.33c0,0.72,0.12,1.14,0.36,1.26
		c0.24,0.12,0.72,0.25,1.44,0.4c0.58,0.1,1.14,0.23,1.69,0.4c0.55,0.17,1.01,0.42,1.37,0.76c0.36,0.34,0.59,0.77,0.68,1.3
		c0.09,0.53-0.03,1.23-0.36,2.09l-12.61,29.85c-0.29,0.67-0.58,1.35-0.87,2.02c-0.29,0.67-0.64,1.27-1.05,1.8
		c-0.41,0.53-0.91,0.95-1.51,1.26c-0.6,0.31-1.38,0.47-2.34,0.47c-0.53,0-0.95,0.05-1.26,0.14c-0.31,0.1-0.49,0.55-0.54,1.37
		c0,0.39,0.1,0.75,0.29,1.08c0.19,0.33,0.53,0.5,1.01,0.5c0.77-0.05,1.43-0.08,1.98-0.11c0.55-0.02,1.08-0.05,1.59-0.07
		c0.5-0.02,1.02-0.04,1.55-0.04h1.88c1.44,0,2.73,0.01,3.86,0.04c1.13,0.02,2.46,0.08,4,0.18c0.43,0,0.76-0.17,0.97-0.5
		c0.22-0.34,0.32-0.7,0.32-1.08c-0.05-0.82-0.23-1.27-0.54-1.37c-0.31-0.1-0.73-0.14-1.26-0.14c-1.4,0-2.49-0.06-3.28-0.18
		c-0.79-0.12-1.33-0.37-1.62-0.76c-0.29-0.39-0.36-0.94-0.22-1.66c0.14-0.72,0.41-1.71,0.79-2.96c0.38-1.06,1.15-3.05,2.31-5.99
		h17.81l2.45,5.99c0.38,1.01,0.63,1.86,0.76,2.56c0.12,0.7,0.1,1.26-0.07,1.69c-0.17,0.43-0.57,0.76-1.19,0.97
		c-0.62,0.22-1.51,0.33-2.67,0.33c-0.53,0-0.95,0.05-1.26,0.14c-0.31,0.1-0.49,0.55-0.54,1.37c0,0.39,0.1,0.75,0.29,1.08
		c0.19,0.33,0.53,0.5,1.01,0.5c3.08-0.14,6.06-0.22,8.94-0.22c1.44,0,2.74,0.01,3.89,0.04c1.16,0.02,2.5,0.08,4.04,0.18
		C438.07,101.19,438.39,101.02,438.61,100.69 M405.55,83.46l7.64-18.53h0.22l7.28,18.53H405.55z"/>
	<path class="st0" d="M480.46,90.38c0.05-0.48-0.13-0.85-0.54-1.12c-0.41-0.26-0.8-0.44-1.19-0.54c-0.53-0.1-1.02-0.07-1.48,0.07
		c-0.46,0.14-0.78,0.46-0.97,0.94c-0.48,1.58-0.91,2.91-1.3,3.96c-0.39,1.06-0.84,1.91-1.37,2.56c-0.53,0.65-1.19,1.11-1.98,1.37
		c-0.79,0.26-1.81,0.42-3.06,0.47h-6.49c-1.25,0.05-2.21-0.07-2.88-0.36c-0.67-0.29-1.17-0.66-1.48-1.12
		c-0.31-0.46-0.49-0.95-0.54-1.48c-0.05-0.53-0.1-1.03-0.14-1.51v-29.7c0-0.67,0.04-1.35,0.11-2.02c0.07-0.67,0.25-1.27,0.54-1.8
		c0.29-0.53,0.74-0.95,1.37-1.26c0.62-0.31,1.51-0.47,2.67-0.47c0.48,0,0.89-0.05,1.23-0.14c0.34-0.1,0.53-0.55,0.58-1.37
		c0-0.38-0.1-0.74-0.29-1.08c-0.19-0.34-0.53-0.5-1.01-0.5c-3.12,0.14-6.13,0.22-9.01,0.22c-1.44,0-2.84-0.01-4.18-0.04
		c-1.35-0.02-2.81-0.08-4.4-0.18c-0.43,0-0.75,0.14-0.94,0.43c-0.19,0.29-0.29,0.67-0.29,1.15c0.05,0.77,0.23,1.21,0.54,1.33
		c0.31,0.12,0.73,0.18,1.26,0.18c1.15,0,2.04,0.15,2.67,0.47c0.62,0.31,1.08,0.73,1.37,1.26c0.29,0.53,0.47,1.13,0.54,1.8
		c0.07,0.67,0.11,1.35,0.11,2.02v28.62c0,0.67-0.04,1.35-0.11,2.02c-0.07,0.67-0.25,1.27-0.54,1.8c-0.29,0.53-0.75,0.95-1.37,1.26
		c-0.62,0.31-1.52,0.47-2.67,0.47c-0.53,0-0.95,0.07-1.26,0.22c-0.31,0.14-0.49,0.58-0.54,1.3c0,0.39,0.1,0.74,0.29,1.08
		c0.19,0.33,0.5,0.5,0.94,0.5c1.58-0.1,3.06-0.15,4.43-0.18c1.37-0.02,2.77-0.04,4.22-0.04h23.65c0.62,0,1.09-0.08,1.41-0.25
		c0.31-0.17,0.54-0.59,0.68-1.26L480.46,90.38z"/>
	<path class="st0" d="M505.18,101.19c0.43,0,0.76-0.17,0.97-0.5c0.21-0.34,0.32-0.7,0.32-1.08c-0.1-0.82-0.3-1.27-0.61-1.37
		c-0.31-0.1-0.73-0.14-1.26-0.14c-1.15,0-2.04-0.15-2.67-0.47c-0.62-0.31-1.08-0.73-1.37-1.26c-0.29-0.53-0.47-1.13-0.54-1.8
		c-0.07-0.67-0.11-1.35-0.11-2.02V63.92c0-0.67,0.04-1.35,0.11-2.02c0.07-0.67,0.25-1.27,0.54-1.8c0.29-0.53,0.74-0.95,1.37-1.26
		c0.62-0.31,1.52-0.47,2.67-0.47c0.53,0,0.95-0.05,1.26-0.14c0.31-0.1,0.52-0.55,0.61-1.37c0-0.38-0.11-0.74-0.32-1.08
		c-0.22-0.34-0.54-0.5-0.97-0.5c-3.12,0.14-6.13,0.21-9.01,0.21c-1.44,0-2.85-0.01-4.22-0.04c-1.37-0.02-2.83-0.08-4.36-0.18
		c-0.48,0-0.82,0.17-1.01,0.5c-0.19,0.34-0.29,0.7-0.29,1.08c0.05,0.82,0.24,1.27,0.58,1.37c0.34,0.1,0.75,0.14,1.23,0.14
		c1.15,0,2.04,0.16,2.67,0.47c0.62,0.31,1.08,0.73,1.37,1.26c0.29,0.53,0.47,1.13,0.54,1.8c0.07,0.67,0.13,1.35,0.18,2.02v28.62
		c-0.05,0.67-0.11,1.35-0.18,2.02c-0.07,0.67-0.25,1.27-0.54,1.8c-0.29,0.53-0.74,0.95-1.37,1.26c-0.62,0.31-1.51,0.47-2.67,0.47
		c-0.48,0-0.89,0.05-1.23,0.14c-0.34,0.1-0.53,0.55-0.58,1.37c0,0.39,0.1,0.75,0.29,1.08c0.19,0.34,0.53,0.5,1.01,0.5
		c1.54-0.1,3-0.16,4.4-0.18c1.39-0.03,2.81-0.04,4.26-0.04C499.08,100.98,502.06,101.05,505.18,101.19"/>
	<path class="st0" d="M558.28,98.24c-0.31-0.1-0.73-0.14-1.26-0.14c-0.77,0-1.42-0.18-1.95-0.54c-0.53-0.36-0.99-0.8-1.37-1.33
		c-0.38-0.53-0.72-1.12-1.01-1.77c-0.29-0.65-0.55-1.29-0.79-1.91L539.79,62.7c-0.67-1.58-1.37-2.88-2.09-3.89
		c-0.72-1.01-1.53-1.78-2.41-2.31c-0.89-0.53-1.9-0.9-3.03-1.12c-1.13-0.22-2.44-0.33-3.93-0.33c-0.82,0-1.5,0.04-2.05,0.11
		c-0.55,0.07-0.83,0.52-0.83,1.33c0,0.72,0.12,1.14,0.36,1.26c0.24,0.12,0.72,0.25,1.44,0.4c0.58,0.1,1.14,0.23,1.69,0.4
		c0.55,0.17,1.01,0.42,1.37,0.76c0.36,0.34,0.59,0.77,0.69,1.3c0.09,0.53-0.03,1.23-0.36,2.09l-12.61,29.85
		c-0.29,0.67-0.58,1.35-0.87,2.02c-0.29,0.67-0.64,1.27-1.05,1.8c-0.41,0.53-0.91,0.95-1.51,1.26c-0.6,0.31-1.38,0.47-2.34,0.47
		c-0.53,0-0.95,0.05-1.26,0.14c-0.31,0.1-0.49,0.55-0.54,1.37c0,0.39,0.1,0.75,0.29,1.08c0.19,0.33,0.53,0.5,1.01,0.5
		c0.77-0.05,1.43-0.08,1.98-0.11c0.55-0.02,1.08-0.05,1.59-0.07c0.5-0.02,1.02-0.04,1.55-0.04h1.88c1.44,0,2.73,0.01,3.86,0.04
		c1.13,0.02,2.46,0.08,4,0.18c0.43,0,0.76-0.17,0.97-0.5c0.22-0.34,0.32-0.7,0.32-1.08c-0.05-0.82-0.23-1.27-0.54-1.37
		c-0.31-0.1-0.73-0.14-1.26-0.14c-1.4,0-2.49-0.06-3.28-0.18c-0.79-0.12-1.33-0.37-1.62-0.76c-0.29-0.39-0.36-0.94-0.22-1.66
		c0.14-0.72,0.41-1.71,0.79-2.96c0.38-1.06,1.15-3.05,2.31-5.99h17.81l2.45,5.99c0.38,1.01,0.63,1.86,0.76,2.56
		c0.12,0.7,0.1,1.26-0.07,1.69c-0.17,0.43-0.57,0.76-1.19,0.97c-0.62,0.22-1.51,0.33-2.67,0.33c-0.53,0-0.95,0.05-1.26,0.14
		c-0.31,0.1-0.49,0.55-0.54,1.37c0,0.39,0.09,0.75,0.29,1.08c0.19,0.33,0.53,0.5,1.01,0.5c3.08-0.14,6.06-0.22,8.94-0.22
		c1.44,0,2.74,0.01,3.89,0.04c1.16,0.02,2.5,0.08,4.04,0.18c0.43,0,0.76-0.17,0.97-0.5c0.22-0.34,0.32-0.7,0.32-1.08
		C558.77,98.79,558.59,98.33,558.28,98.24 M525.44,83.46l7.64-18.53h0.22l7.28,18.53H525.44z"/>
</g>
<g>
	<defs>
		<path id="SVGID_3_" d="M325.45,125.89c-0.8,0.37-1.42,0.87-1.85,1.51c-0.43,0.64-0.65,1.36-0.65,2.15c0,0.8,0.15,1.48,0.46,2.05
			c0.3,0.57,0.75,1.06,1.35,1.48c0.6,0.42,1.4,0.86,2.4,1.3c1.02,0.45,1.82,0.83,2.39,1.16c0.57,0.33,1.02,0.69,1.33,1.08
			c0.31,0.39,0.46,0.84,0.46,1.35c0,0.72-0.31,1.29-0.93,1.71c-0.62,0.42-1.5,0.63-2.63,0.63c-0.67,0-1.38-0.1-2.13-0.31
			c-0.75-0.21-1.38-0.45-1.89-0.72l-0.52,1.82c0.32,0.29,0.98,0.56,2,0.81c1.01,0.25,1.87,0.38,2.57,0.38
			c1.23,0,2.28-0.18,3.16-0.55c0.88-0.37,1.55-0.88,2.01-1.54c0.46-0.66,0.69-1.43,0.69-2.29c0-1.11-0.34-2.03-1.02-2.73
			c-0.68-0.7-1.74-1.38-3.19-2.03c-1.09-0.49-1.91-0.9-2.46-1.22c-0.56-0.32-0.99-0.67-1.29-1.07c-0.3-0.39-0.45-0.85-0.45-1.38
			c0-0.68,0.29-1.21,0.89-1.58c0.59-0.37,1.36-0.55,2.32-0.55c0.68,0,1.28,0.08,1.78,0.23c0.5,0.15,1.03,0.36,1.59,0.63l0.77-1.82
			c-0.61-0.3-1.29-0.56-2.04-0.77c-0.76-0.21-1.51-0.31-2.26-0.31C327.2,125.34,326.26,125.52,325.45,125.89"/>
	</defs>
	<use xlink:href="#SVGID_3_"  style="overflow:visible;fill:#F2F2F3;"/>
	<clipPath id="SVGID_4_">
		<use xlink:href="#SVGID_3_"  style="overflow:visible;"/>
	</clipPath>
	
		<rect x="321.77" y="124.65" transform="matrix(0.9893 -0.1461 0.1461 0.9893 -16.0271 49.3966)" class="st1" width="13.08" height="18.35"/>
</g>
<g>
	<defs>
		<path id="SVGID_5_" d="M343.15,127.66h2.35c1.25,0,2.19,0.24,2.82,0.73c0.64,0.49,0.96,1.32,0.96,2.5
			c-0.05,1.09-0.42,1.89-1.11,2.41c-0.69,0.53-1.62,0.79-2.79,0.79h-2.23V127.66z M340.85,125.72v16.27h2.3v-5.98h2.13
			c1.18,0,2.25-0.19,3.22-0.56c0.96-0.37,1.73-0.95,2.31-1.73c0.58-0.78,0.86-1.76,0.86-2.92c0-1.72-0.56-3-1.69-3.83
			c-1.13-0.83-2.61-1.24-4.46-1.24H340.85z"/>
	</defs>
	<use xlink:href="#SVGID_5_"  style="overflow:visible;fill:#F2F2F3;"/>
	<clipPath id="SVGID_6_">
		<use xlink:href="#SVGID_5_"  style="overflow:visible;"/>
	</clipPath>
	
		<rect x="339.72" y="125.02" transform="matrix(0.9893 -0.1461 0.1461 0.9893 -15.8396 52.0178)" class="st2" width="13.07" height="17.67"/>
</g>
<g>
	<defs>
		<path id="SVGID_7_" d="M362.61,139.54c-0.81-0.55-1.44-1.32-1.89-2.31c-0.46-0.99-0.68-2.1-0.68-3.32c0-1.26,0.23-2.39,0.69-3.39
			c0.46-1,1.11-1.78,1.94-2.34c0.83-0.57,1.76-0.85,2.8-0.85c1,0,1.91,0.28,2.7,0.83c0.8,0.55,1.43,1.32,1.88,2.3
			c0.45,0.98,0.68,2.09,0.68,3.32c0,1.26-0.23,2.39-0.69,3.4c-0.46,1.01-1.1,1.79-1.93,2.36c-0.82,0.57-1.75,0.85-2.79,0.85
			C364.32,140.36,363.41,140.09,362.61,139.54 M361.42,126.51c-1.18,0.75-2.11,1.77-2.77,3.06c-0.67,1.29-1,2.74-1,4.35
			c0,1.61,0.33,3.06,0.99,4.33c0.66,1.28,1.58,2.27,2.75,2.99c1.17,0.72,2.49,1.08,3.96,1.08c1.5-0.01,2.84-0.4,4.03-1.15
			c1.19-0.75,2.12-1.77,2.79-3.06c0.67-1.29,1-2.74,1-4.35c0-1.61-0.33-3.06-0.99-4.33c-0.66-1.28-1.58-2.28-2.77-3
			c-1.18-0.73-2.51-1.09-3.99-1.09C363.94,125.37,362.6,125.76,361.42,126.51"/>
	</defs>
	<use xlink:href="#SVGID_7_"  style="overflow:visible;fill:#F2F2F3;"/>
	<clipPath id="SVGID_8_">
		<use xlink:href="#SVGID_7_"  style="overflow:visible;"/>
	</clipPath>
	
		<rect x="356.49" y="124.3" transform="matrix(0.9893 -0.1461 0.1461 0.9893 -15.6308 54.8155)" class="st3" width="17.84" height="19.07"/>
</g>
<g>
	<defs>
		<rect id="SVGID_9_" x="380.59" y="125.72" width="2.3" height="16.27"/>
	</defs>
	<use xlink:href="#SVGID_9_"  style="overflow:visible;fill:#F2F2F3;"/>
	<clipPath id="SVGID_10_">
		<use xlink:href="#SVGID_9_"  style="overflow:visible;"/>
	</clipPath>
	
		<rect x="379.41" y="125.64" transform="matrix(0.9893 -0.1461 0.1461 0.9893 -15.4588 57.1997)" class="st4" width="4.65" height="16.43"/>
</g>
<g>
	<defs>
		<polygon id="SVGID_11_" points="391.5,125.72 391.5,141.99 401.42,141.99 401.14,140.2 393.79,140.2 393.79,125.72 		"/>
	</defs>
	<use xlink:href="#SVGID_11_"  style="overflow:visible;fill:#F2F2F3;"/>
	<clipPath id="SVGID_12_">
		<use xlink:href="#SVGID_11_"  style="overflow:visible;"/>
	</clipPath>
	
		<rect x="390.36" y="125.09" transform="matrix(0.9893 -0.1461 0.1461 0.9893 -15.3012 59.3524)" class="st5" width="12.2" height="17.54"/>
</g>
<g>
	<defs>
		<polygon id="SVGID_13_" points="416.02,126.13 421.4,135.53 421.4,141.99 423.7,141.99 423.72,135.51 429.39,125.72 
			426.95,125.72 422.55,133.24 418.24,125.32 		"/>
	</defs>
	<use xlink:href="#SVGID_13_"  style="overflow:visible;fill:#F2F2F3;"/>
	<clipPath id="SVGID_14_">
		<use xlink:href="#SVGID_13_"  style="overflow:visible;"/>
	</clipPath>
	
		<rect x="414.87" y="124.43" transform="matrix(0.9893 -0.1461 0.1461 0.9893 -14.9899 63.1843)" class="st6" width="15.67" height="18.45"/>
</g>
<g>
	<defs>
		<path id="SVGID_15_" d="M439.86,139.54c-0.81-0.55-1.44-1.32-1.89-2.31c-0.45-0.99-0.68-2.1-0.68-3.32c0-1.26,0.23-2.39,0.69-3.39
			c0.46-1,1.11-1.78,1.94-2.34c0.83-0.57,1.76-0.85,2.8-0.85c1.01,0,1.91,0.28,2.71,0.83c0.8,0.55,1.42,1.32,1.88,2.3
			c0.45,0.98,0.68,2.09,0.68,3.32c0,1.26-0.23,2.39-0.7,3.4c-0.46,1.01-1.1,1.79-1.92,2.36c-0.82,0.57-1.75,0.85-2.79,0.85
			C441.57,140.36,440.67,140.09,439.86,139.54 M438.68,126.51c-1.18,0.75-2.11,1.77-2.78,3.06c-0.67,1.29-1,2.74-1,4.35
			c0,1.61,0.33,3.06,0.99,4.33c0.66,1.28,1.58,2.27,2.75,2.99c1.17,0.72,2.49,1.08,3.96,1.08c1.5-0.01,2.84-0.4,4.03-1.15
			c1.19-0.75,2.12-1.77,2.79-3.06c0.67-1.29,1-2.74,1-4.35c0-1.61-0.33-3.06-0.99-4.33c-0.66-1.28-1.58-2.28-2.76-3
			c-1.18-0.73-2.51-1.09-3.99-1.09C441.19,125.37,439.86,125.76,438.68,126.51"/>
	</defs>
	<use xlink:href="#SVGID_15_"  style="overflow:visible;fill:#F2F2F3;"/>
	<clipPath id="SVGID_16_">
		<use xlink:href="#SVGID_15_"  style="overflow:visible;"/>
	</clipPath>
	
		<rect x="433.74" y="124.3" transform="matrix(0.9893 -0.1461 0.1461 0.9893 -14.8021 66.1003)" class="st7" width="17.84" height="19.07"/>
</g>
<g>
	<defs>
		<path id="SVGID_17_" d="M467.96,125.72v10.24c0,1.34-0.36,2.41-1.08,3.21c-0.72,0.8-1.7,1.2-2.94,1.2c-1.21,0-2.19-0.39-2.93-1.18
			c-0.74-0.79-1.11-1.86-1.11-3.22v-10.24h-2.3v10.46c0,1.16,0.26,2.21,0.78,3.13c0.52,0.92,1.26,1.65,2.21,2.16
			c0.96,0.52,2.07,0.78,3.35,0.78c1.27,0,2.39-0.26,3.35-0.79c0.96-0.53,1.69-1.25,2.21-2.17c0.52-0.92,0.78-1.96,0.78-3.12v-10.46
			H467.96z"/>
	</defs>
	<use xlink:href="#SVGID_17_"  style="overflow:visible;fill:#F2F2F3;"/>
	<clipPath id="SVGID_18_">
		<use xlink:href="#SVGID_17_"  style="overflow:visible;"/>
	</clipPath>
	
		<rect x="456.46" y="124.89" transform="matrix(0.9893 -0.1461 0.1461 0.9893 -14.5965 69.2112)" class="st8" width="14.96" height="18.21"/>
</g>
<g>
	<defs>
		<path id="SVGID_19_" d="M480.95,127.66h2.35c1.23,0,2.16,0.23,2.81,0.68c0.65,0.45,0.97,1.22,0.97,2.31
			c-0.02,1.04-0.38,1.79-1.09,2.26c-0.71,0.47-1.65,0.71-2.81,0.71h-2.22V127.66z M478.65,125.72v16.27h2.3v-6.51h2.13
			c0.73,0,1.23-0.02,1.51-0.07l3.64,6.58h2.49l-4.09-7.18c0.86-0.37,1.55-0.91,2.06-1.64c0.51-0.72,0.78-1.6,0.79-2.62
			c0-1.63-0.57-2.84-1.7-3.63c-1.13-0.8-2.61-1.2-4.45-1.2H478.65z"/>
	</defs>
	<use xlink:href="#SVGID_19_"  style="overflow:visible;fill:#F2F2F3;"/>
	<clipPath id="SVGID_20_">
		<use xlink:href="#SVGID_19_"  style="overflow:visible;"/>
	</clipPath>
	
		<rect x="477.53" y="124.93" transform="matrix(0.9893 -0.1461 0.1461 0.9893 -14.3548 72.2404)" class="st9" width="14.31" height="17.85"/>
</g>
<g>
	<defs>
		<path id="SVGID_21_" d="M498.71,125.89c-0.81,0.37-1.42,0.87-1.85,1.51c-0.43,0.64-0.65,1.36-0.65,2.15c0,0.8,0.15,1.48,0.45,2.05
			c0.3,0.57,0.75,1.06,1.35,1.48c0.6,0.42,1.4,0.86,2.4,1.3c1.02,0.45,1.82,0.83,2.39,1.16c0.57,0.33,1.02,0.69,1.33,1.08
			c0.31,0.39,0.47,0.84,0.47,1.35c0,0.72-0.31,1.29-0.93,1.71c-0.62,0.42-1.5,0.63-2.63,0.63c-0.67,0-1.38-0.1-2.13-0.31
			c-0.75-0.21-1.38-0.45-1.89-0.72l-0.53,1.82c0.32,0.29,0.99,0.56,2,0.81c1.01,0.25,1.87,0.38,2.57,0.38
			c1.23,0,2.28-0.18,3.16-0.55c0.88-0.37,1.55-0.88,2.01-1.54c0.46-0.66,0.7-1.43,0.7-2.29c0-1.11-0.34-2.03-1.02-2.73
			c-0.68-0.7-1.74-1.38-3.19-2.03c-1.08-0.49-1.91-0.9-2.47-1.22c-0.56-0.32-0.99-0.67-1.29-1.07c-0.3-0.39-0.46-0.85-0.46-1.38
			c0-0.68,0.3-1.21,0.89-1.58c0.59-0.37,1.36-0.55,2.32-0.55c0.68,0,1.28,0.08,1.78,0.23c0.5,0.15,1.03,0.36,1.59,0.63l0.77-1.82
			c-0.61-0.3-1.29-0.56-2.05-0.77c-0.76-0.21-1.51-0.31-2.26-0.31C500.46,125.34,499.52,125.52,498.71,125.89"/>
	</defs>
	<use xlink:href="#SVGID_21_"  style="overflow:visible;fill:#F2F2F3;"/>
	<clipPath id="SVGID_22_">
		<use xlink:href="#SVGID_21_"  style="overflow:visible;"/>
	</clipPath>
	
		<rect x="495.03" y="124.65" transform="matrix(0.9893 -0.1461 0.1461 0.9893 -14.1685 74.7068)" class="st10" width="13.08" height="18.35"/>
</g>
<g>
	<defs>
		<polygon id="SVGID_23_" points="514.11,125.72 514.11,141.99 524.44,141.99 524.13,140.2 516.41,140.2 516.41,134.6 522.24,134.6 
			521.93,132.83 516.41,132.83 516.41,127.49 524.44,127.49 524.13,125.72 		"/>
	</defs>
	<use xlink:href="#SVGID_23_"  style="overflow:visible;fill:#F2F2F3;"/>
	<clipPath id="SVGID_24_">
		<use xlink:href="#SVGID_23_"  style="overflow:visible;"/>
	</clipPath>
	
		<rect x="512.97" y="125.06" transform="matrix(0.9893 -0.1461 0.1461 0.9893 -13.9837 77.2932)" class="st11" width="12.6" height="17.6"/>
</g>
<g>
	<defs>
		<polygon id="SVGID_25_" points="531.38,125.72 531.38,141.99 541.31,141.99 541.02,140.2 533.68,140.2 533.68,125.72 		"/>
	</defs>
	<use xlink:href="#SVGID_25_"  style="overflow:visible;fill:#F2F2F3;"/>
	<clipPath id="SVGID_26_">
		<use xlink:href="#SVGID_25_"  style="overflow:visible;"/>
	</clipPath>
	
		<rect x="530.25" y="125.09" transform="matrix(0.9893 -0.1461 0.1461 0.9893 -13.8005 79.787)" class="st12" width="12.2" height="17.54"/>
</g>
<g>
	<defs>
		<polygon id="SVGID_27_" points="548.01,125.72 548.01,141.99 550.31,141.99 550.31,134.69 555.88,134.69 555.59,132.95 
			550.31,132.95 550.31,127.49 557.12,127.49 556.79,125.72 		"/>
	</defs>
	<use xlink:href="#SVGID_27_"  style="overflow:visible;fill:#F2F2F3;"/>
	<clipPath id="SVGID_28_">
		<use xlink:href="#SVGID_27_"  style="overflow:visible;"/>
	</clipPath>
	
		<rect x="546.87" y="125.14" transform="matrix(0.9893 -0.1461 0.1461 0.9893 -13.6265 82.1559)" class="st13" width="11.39" height="17.43"/>
</g>
<g>
	<defs>
		<path id="SVGID_29_" d="M168.3,2.63c-5.19,0.13-10.33,0.81-15.4,1.82c-10.12,2.07-20.07,5.37-29.04,10.66
			C115,20.5,106.99,27.06,99.24,33.85c-7.71,6.84-15.11,14.01-22.35,21.33c-14.46,14.66-28.22,29.97-42.01,45.22
			c-3.45,3.81-6.9,7.61-10.42,11.34c-3.46,3.79-7.25,7.14-11.04,10.66c-1.89,1.76-3.78,3.49-5.6,5.39
			c-0.46,0.48-0.98,1.06-1.35,1.78c-0.38,0.7-0.64,1.69-0.35,2.66c0.28,0.98,0.96,1.62,1.59,2.06c0.65,0.45,1.32,0.74,1.99,0.98
			c2.68,0.89,5.37,1.01,8.03,0.88c2.64-0.12,5.38-0.73,7.8-1.63c4.88-1.7,9.68-3.52,14.52-5.26c4.79-1.73,9.72-3.11,14.68-4.33
			c9.94-2.4,20.08-4.07,30.27-5c10.2-0.79,20.5-1.36,30.47,0.92c10,2.07,19.69,5.53,29.21,9.33c9.52,3.82,18.88,8.07,28.28,12.25
			c9.42,4.11,18.8,8.45,28.83,11.16c5.03,1.28,10.3,1.84,15.49,1.24c5.19-0.59,10.24-2.33,14.71-5.02c9-5.4,15.61-13.83,20.92-22.62
			c0,0,0.23-0.33,0.4-0.75c0.32-0.77-0.52-0.93-0.92-0.4c-0.22,0.29-0.43,0.59-0.43,0.59c-5.4,8.62-12.07,16.76-20.81,21.78
			c-4.33,2.51-9.16,4.07-14.09,4.54c-4.93,0.48-9.94-0.13-14.74-1.45c-9.47-3.41-18.33-8.67-27.43-13.37l-13.66-7.29
			c-4.61-2.38-9.28-4.67-14.02-6.9c-4.75-2.22-9.58-4.35-14.55-6.3c-4.99-1.91-10.14-3.57-15.5-4.9c-2.68-0.68-5.44-1.21-8.25-1.66
			c-1.43-0.17-2.83-0.41-4.3-0.5l-2.19-0.17l-2.04-0.08c-5.43-0.25-10.83-0.19-16.2,0.17c-10.72,0.71-21.31,2.18-31.86,4.44
			c-5.28,1.11-10.57,2.52-15.85,4.39c-2.14,0.74-4.28,1.51-6.4,2.26l2.26-2.4c3.6-3.89,7.03-7.76,10.46-11.62L53.03,96l10.05-11.61
			c6.71-7.7,13.53-15.27,20.42-22.73c6.82-7.53,13.79-14.88,21.02-21.87c7.24-6.93,14.6-13.84,22.56-19.33
			c7.79-5.3,17.05-9.33,26.63-12.03c4.79-1.4,9.7-2.51,14.67-3.09c2.48-0.29,4.93-0.32,7.4-0.09c2.54,0.24,6,0.77,7.12,1.22
			c1.33,0.53,2.18-0.01,0.85-0.96c-1.82-1.3-5.45-2.18-7.65-2.48c-2.07-0.29-4.15-0.39-6.23-0.39
			C169.34,2.61,168.82,2.62,168.3,2.63"/>
	</defs>
	<clipPath id="SVGID_30_">
		<use xlink:href="#SVGID_29_"  style="overflow:visible;"/>
	</clipPath>
	
		<linearGradient id="SVGID_31_" gradientUnits="userSpaceOnUse" x1="-113.5325" y1="392.6326" x2="-112.5325" y2="392.6326" gradientTransform="matrix(185.5575 -185.5575 -185.5575 -185.5575 93960.1484 51960.4609)">
		<stop  offset="0" style="stop-color:#BB8728"/>
		<stop  offset="0.0575" style="stop-color:#BB8728"/>
		<stop  offset="0.2143" style="stop-color:#FBC42E"/>
		<stop  offset="0.5092" style="stop-color:#C69941"/>
		<stop  offset="0.7779" style="stop-color:#F2DC92"/>
		<stop  offset="0.8887" style="stop-color:#C69941"/>
		<stop  offset="1" style="stop-color:#BB8728"/>
	</linearGradient>
	<polygon class="st14" points="-70.57,79.03 129.74,-121.29 330.05,79.03 129.74,279.34 	"/>
</g>
<g>
	<defs>
		<path id="SVGID_32_" d="M118.06,55.49c-1.43,0-2.82-0.01-4.15-0.04c-1.34-0.02-2.79-0.08-4.37-0.18c-0.43,0-0.74,0.14-0.93,0.43
			c-0.19,0.29-0.29,0.67-0.29,1.15c0.05,0.77,0.23,1.21,0.54,1.33c0.31,0.12,0.73,0.18,1.25,0.18c1.15,0,2.03,0.16,2.65,0.47
			c0.62,0.31,1.07,0.73,1.36,1.26c0.29,0.53,0.46,1.13,0.54,1.8c0.07,0.67,0.11,1.35,0.11,2.02v28.62c0,0.67-0.04,1.35-0.11,2.02
			c-0.07,0.67-0.25,1.27-0.54,1.8c-0.29,0.53-0.74,0.95-1.36,1.26c-0.62,0.31-1.5,0.47-2.65,0.47c-0.53,0-0.94,0.07-1.25,0.22
			c-0.31,0.14-0.49,0.58-0.54,1.3c0,0.38,0.1,0.74,0.29,1.08c0.19,0.34,0.5,0.51,0.93,0.51c1.57-0.1,3.04-0.16,4.4-0.18
			c1.36-0.02,2.76-0.04,4.19-0.04h23.48c0.62,0,1.09-0.08,1.4-0.25c0.31-0.17,0.54-0.59,0.68-1.26l1.43-9.08
			c0.05-0.48-0.13-0.85-0.54-1.12c-0.41-0.26-0.8-0.44-1.18-0.54c-0.53-0.1-1.01-0.07-1.47,0.07c-0.45,0.14-0.78,0.46-0.97,0.94
			c-0.48,1.59-0.91,2.91-1.29,3.97c-0.38,1.06-0.84,1.91-1.36,2.56c-0.53,0.65-1.18,1.11-1.97,1.37c-0.79,0.27-1.8,0.42-3.04,0.47
			h-6.44c-1.24,0.05-2.2-0.07-2.86-0.36c-0.67-0.29-1.16-0.66-1.47-1.12c-0.31-0.46-0.49-0.95-0.54-1.48
			c-0.05-0.53-0.1-1.03-0.14-1.51v-29.7c0-0.67,0.03-1.35,0.11-2.02c0.07-0.67,0.25-1.27,0.54-1.8c0.29-0.53,0.74-0.95,1.36-1.26
			c0.62-0.31,1.5-0.47,2.65-0.47c0.48,0,0.88-0.05,1.22-0.14c0.33-0.1,0.52-0.55,0.57-1.37c0-0.38-0.1-0.74-0.29-1.08
			c-0.19-0.34-0.52-0.5-1-0.5C123.91,55.41,120.93,55.49,118.06,55.49"/>
	</defs>
	<clipPath id="SVGID_33_">
		<use xlink:href="#SVGID_32_"  style="overflow:visible;"/>
	</clipPath>
	
		<linearGradient id="SVGID_34_" gradientUnits="userSpaceOnUse" x1="-113.5325" y1="392.4984" x2="-112.5325" y2="392.4984" gradientTransform="matrix(262.3463 -262.3463 -262.3463 -262.3463 132767.0312 73378.9766)">
		<stop  offset="0" style="stop-color:#BB8728"/>
		<stop  offset="0.0575" style="stop-color:#BB8728"/>
		<stop  offset="0.2143" style="stop-color:#FBC42E"/>
		<stop  offset="0.5092" style="stop-color:#C69941"/>
		<stop  offset="0.7779" style="stop-color:#F2DC92"/>
		<stop  offset="0.8887" style="stop-color:#C69941"/>
		<stop  offset="1" style="stop-color:#BB8728"/>
	</linearGradient>
	<polygon class="st15" points="85.36,78.23 126.75,36.84 168.14,78.23 126.75,119.62 	"/>
</g>
<g>
	<defs>
		<path id="SVGID_35_" d="M192.36,55.45c-1.19,0.02-2.51,0.04-3.94,0.04c-1.43,0-2.75-0.01-3.94-0.04
			c-1.19-0.02-2.55-0.08-4.08-0.18c-0.48,0-0.81,0.17-1,0.5c-0.19,0.34-0.29,0.7-0.29,1.08c0.05,0.82,0.24,1.27,0.57,1.37
			c0.33,0.1,0.74,0.14,1.22,0.14c1.19,0,2.16,0.08,2.9,0.25c0.74,0.17,1.3,0.59,1.68,1.26c0.38,0.67,0.63,1.68,0.75,3.03
			c0.12,1.35,0.18,3.2,0.18,5.55v18.96c0,1.3-0.18,2.58-0.54,3.86c-0.36,1.27-0.99,2.43-1.9,3.46c-0.91,1.03-2.14,1.86-3.69,2.49
			c-1.55,0.63-3.54,0.94-5.98,0.94c-2.53,0-4.55-0.38-6.05-1.15c-1.5-0.77-2.65-1.73-3.44-2.88c-0.79-1.15-1.3-2.41-1.54-3.79
			c-0.24-1.37-0.36-2.68-0.36-3.93V63.92c0-0.72,0.04-1.42,0.11-2.09c0.07-0.67,0.27-1.26,0.61-1.77c0.33-0.5,0.82-0.91,1.47-1.22
			c0.64-0.31,1.59-0.47,2.83-0.47c0.43,0,0.76-0.07,1-0.22c0.24-0.14,0.38-0.58,0.43-1.3c0-0.38-0.1-0.74-0.29-1.08
			c-0.19-0.34-0.53-0.5-1-0.5c-3.1,0.14-6.09,0.22-8.95,0.22c-1.43,0-2.82-0.01-4.15-0.04c-1.34-0.02-2.77-0.08-4.3-0.18
			c-0.48,0-0.81,0.17-1,0.5c-0.19,0.34-0.29,0.7-0.29,1.08c0.05,0.82,0.23,1.27,0.54,1.37c0.31,0.1,0.73,0.14,1.25,0.14
			c1.15,0,2.03,0.16,2.65,0.47c0.62,0.31,1.07,0.73,1.36,1.26c0.29,0.53,0.47,1.13,0.54,1.8c0.07,0.67,0.11,1.35,0.11,2.02V88.5
			c0,1.78,0.37,3.5,1.11,5.15c0.74,1.66,1.83,3.14,3.26,4.43c1.43,1.3,3.23,2.34,5.4,3.14c2.17,0.79,4.69,1.19,7.55,1.19
			c1.86,0,3.81-0.26,5.84-0.79c2.03-0.53,3.89-1.37,5.58-2.52c1.69-1.15,3.09-2.63,4.19-4.43s1.65-3.98,1.65-6.52V68.03
			c0-2.31,0.06-4.11,0.18-5.41c0.12-1.3,0.38-2.26,0.79-2.88c0.4-0.62,1-1.01,1.79-1.15c0.79-0.14,1.83-0.22,3.11-0.22
			c0.43,0,0.76-0.07,1-0.22c0.24-0.14,0.38-0.58,0.43-1.3c0-0.38-0.1-0.74-0.29-1.08c-0.19-0.34-0.53-0.5-1-0.5
			C194.91,55.37,193.55,55.43,192.36,55.45"/>
	</defs>
	<clipPath id="SVGID_36_">
		<use xlink:href="#SVGID_35_"  style="overflow:visible;"/>
	</clipPath>
	
		<linearGradient id="SVGID_37_" gradientUnits="userSpaceOnUse" x1="-113.5325" y1="392.4847" x2="-112.5325" y2="392.4847" gradientTransform="matrix(248.0586 -248.0586 -248.0586 -248.0586 125555.1484 69415.6797)">
		<stop  offset="0" style="stop-color:#BB8728"/>
		<stop  offset="0.0575" style="stop-color:#BB8728"/>
		<stop  offset="0.2143" style="stop-color:#FBC42E"/>
		<stop  offset="0.5092" style="stop-color:#C69941"/>
		<stop  offset="0.7779" style="stop-color:#F2DC92"/>
		<stop  offset="0.8887" style="stop-color:#C69941"/>
		<stop  offset="1" style="stop-color:#BB8728"/>
	</linearGradient>
	<polygon class="st16" points="125.82,78.84 173.56,31.1 221.3,78.84 173.56,126.58 	"/>
</g>
<g>
	<defs>
		<path id="SVGID_38_" d="M204.11,55.23c-0.55,0.07-0.82,0.52-0.82,1.33c0,0.77,0.13,1.2,0.39,1.3c0.26,0.1,0.73,0.22,1.4,0.36
			c1.53,0.34,2.84,0.9,3.94,1.69c1.1,0.79,2.24,2.1,3.44,3.93l9.16,14.49l-10.38,14.85c-0.67,0.96-1.27,1.76-1.79,2.38
			c-0.53,0.62-1.06,1.12-1.61,1.48c-0.55,0.36-1.14,0.63-1.79,0.79c-0.64,0.17-1.42,0.25-2.33,0.25c-0.53,0-0.94,0.05-1.25,0.14
			c-0.31,0.1-0.49,0.55-0.54,1.37c0,0.38,0.09,0.74,0.29,1.08c0.19,0.34,0.52,0.51,1,0.51c0.76-0.05,1.43-0.08,2.01-0.11
			c0.57-0.03,1.13-0.05,1.68-0.07c0.55-0.02,1.1-0.04,1.65-0.04h1.9c1.43,0,2.71,0.01,3.83,0.04c1.12,0.02,2.45,0.08,3.97,0.18
			c0.43,0,0.74-0.17,0.93-0.51c0.19-0.34,0.29-0.7,0.29-1.08c-0.05-0.82-0.23-1.27-0.54-1.37c-0.31-0.1-0.73-0.14-1.25-0.14
			c-0.81,0-1.54-0.04-2.18-0.11c-0.64-0.07-1.12-0.24-1.43-0.5c-0.31-0.26-0.44-0.62-0.39-1.08c0.05-0.46,0.33-1.07,0.86-1.84
			l9.17-13.19l9.17,13.19c0.67,0.91,0.81,1.73,0.43,2.45c-0.38,0.72-1.29,1.08-2.72,1.08c-0.48,0-0.88,0.05-1.22,0.14
			c-0.33,0.1-0.53,0.55-0.57,1.37c0,0.38,0.1,0.74,0.29,1.08c0.19,0.34,0.52,0.51,1,0.51c3.05-0.14,5.97-0.22,8.74-0.22
			c1.43,0,2.84,0.01,4.22,0.04c1.38,0.02,2.84,0.08,4.37,0.18c0.43,0,0.74-0.17,0.93-0.51c0.19-0.34,0.29-0.7,0.29-1.08
			c-0.05-0.82-0.23-1.27-0.54-1.37c-0.31-0.1-0.73-0.14-1.25-0.14c-1.57,0-2.85-0.53-3.83-1.59c-0.98-1.06-1.87-2.19-2.68-3.39
			l-12.46-17.88l8.38-11.97c0.62-0.91,1.19-1.7,1.72-2.34c0.52-0.65,1.06-1.15,1.61-1.51c0.55-0.36,1.16-0.62,1.83-0.79
			c0.67-0.17,1.46-0.25,2.36-0.25c0.52,0,0.94-0.05,1.25-0.14c0.31-0.1,0.49-0.55,0.54-1.37c0-0.38-0.1-0.74-0.29-1.08
			c-0.19-0.34-0.53-0.5-1-0.5c-0.76,0.05-1.43,0.08-2,0.11c-0.57,0.02-1.13,0.05-1.68,0.07c-0.55,0.02-1.1,0.04-1.65,0.04h-1.9
			c-1.43,0-2.71-0.01-3.83-0.04c-1.12-0.02-2.45-0.08-3.97-0.18c-0.43,0-0.74,0.17-0.93,0.5c-0.19,0.34-0.29,0.7-0.29,1.08
			c0.05,0.82,0.23,1.27,0.54,1.37c0.31,0.1,0.73,0.14,1.25,0.14c0.81,0,1.53,0.04,2.15,0.11c0.62,0.07,1.1,0.23,1.43,0.47
			c0.33,0.24,0.48,0.6,0.43,1.08c-0.05,0.48-0.34,1.11-0.86,1.87l-7.09,10.38l-5.87-9.66c-0.96-1.35-1.89-2.5-2.79-3.46
			c-0.91-0.96-1.9-1.74-2.97-2.34c-1.08-0.6-2.27-1.03-3.58-1.3c-1.31-0.26-2.8-0.4-4.47-0.4
			C205.34,55.13,204.66,55.16,204.11,55.23"/>
	</defs>
	<clipPath id="SVGID_39_">
		<use xlink:href="#SVGID_38_"  style="overflow:visible;"/>
	</clipPath>
	
		<linearGradient id="SVGID_40_" gradientUnits="userSpaceOnUse" x1="-113.5325" y1="392.5013" x2="-112.5325" y2="392.5013" gradientTransform="matrix(283.9631 -283.9631 -283.9631 -283.9631 143706.5625 79508.6328)">
		<stop  offset="0" style="stop-color:#BB8728"/>
		<stop  offset="0.0575" style="stop-color:#BB8728"/>
		<stop  offset="0.2143" style="stop-color:#FBC42E"/>
		<stop  offset="0.5092" style="stop-color:#C69941"/>
		<stop  offset="0.7779" style="stop-color:#F2DC92"/>
		<stop  offset="0.8887" style="stop-color:#C69941"/>
		<stop  offset="1" style="stop-color:#BB8728"/>
	</linearGradient>
	<polygon class="st17" points="178.89,78.16 225.27,31.78 271.64,78.16 225.27,124.53 	"/>
</g>
<g>
	<defs>
		<path id="SVGID_41_" d="M268.49,97.55c-1.81-1.13-3.32-2.64-4.51-4.54c-1.19-1.9-2.08-4.08-2.65-6.56
			c-0.57-2.48-0.86-5.08-0.86-7.82c0-2.88,0.27-5.62,0.82-8.22c0.55-2.6,1.41-4.88,2.58-6.85c1.17-1.97,2.66-3.53,4.48-4.69
			c1.81-1.15,3.98-1.73,6.51-1.73c2.43,0,4.57,0.55,6.41,1.66c1.84,1.11,3.37,2.6,4.58,4.47c1.22,1.87,2.12,4.05,2.72,6.52
			c0.6,2.48,0.9,5.06,0.9,7.75c0,2.88-0.29,5.64-0.86,8.26c-0.57,2.62-1.46,4.93-2.65,6.92c-1.19,1.99-2.71,3.58-4.55,4.76
			c-1.84,1.18-4.02,1.77-6.55,1.77C272.43,99.25,270.3,98.68,268.49,97.55 M266.92,55.67c-2.72,1.08-5.18,2.68-7.38,4.79
			c-2.2,2.12-3.99,4.71-5.37,7.79c-1.39,3.08-2.08,6.61-2.08,10.6c0,3.08,0.54,6.03,1.61,8.87c1.07,2.84,2.59,5.35,4.55,7.53
			c1.96,2.19,4.34,3.93,7.16,5.23c2.82,1.3,5.99,1.95,9.52,1.95c2.62,0,5.31-0.55,8.05-1.66c2.74-1.11,5.23-2.71,7.45-4.83
			c2.22-2.11,4.03-4.71,5.44-7.79c1.41-3.08,2.11-6.61,2.11-10.6c0-3.03-0.54-5.96-1.61-8.8c-1.07-2.83-2.6-5.35-4.58-7.53
			c-1.98-2.19-4.39-3.93-7.23-5.23c-2.84-1.3-6.05-1.95-9.63-1.95C272.31,54.04,269.64,54.58,266.92,55.67"/>
	</defs>
	<clipPath id="SVGID_42_">
		<use xlink:href="#SVGID_41_"  style="overflow:visible;"/>
	</clipPath>
	
		<linearGradient id="SVGID_43_" gradientUnits="userSpaceOnUse" x1="-113.5325" y1="392.5" x2="-112.5325" y2="392.5" gradientTransform="matrix(221.794 -221.794 -221.794 -221.794 112306.8438 62154.7266)">
		<stop  offset="0" style="stop-color:#BB8728"/>
		<stop  offset="0.0575" style="stop-color:#BB8728"/>
		<stop  offset="0.2143" style="stop-color:#FBC42E"/>
		<stop  offset="0.5092" style="stop-color:#C69941"/>
		<stop  offset="0.7779" style="stop-color:#F2DC92"/>
		<stop  offset="0.8887" style="stop-color:#C69941"/>
		<stop  offset="1" style="stop-color:#BB8728"/>
	</linearGradient>
	<polygon class="st18" points="227.91,78.23 275.04,31.1 322.18,78.23 275.04,125.37 	"/>
</g>
</svg>
